M48
; DRILL file {KiCad 9.0.1} date 2026-04-01T23:19:03+0530
; FORMAT={-:-/ absolute / metric / decimal}
; #@! TF.CreationDate,2026-04-01T23:19:03+05:30
; #@! TF.GenerationSoftware,Kicad,Pcbnew,9.0.1
; #@! TF.FileFunction,Plated,1,2,PTH
FMAT,2
METRIC
; #@! TA.AperFunction,Plated,PTH,ComponentDrill
T1C0.200
; #@! TA.AperFunction,Plated,PTH,ViaDrill
T2C0.300
; #@! TA.AperFunction,Plated,PTH,ComponentDrill
T3C0.400
; #@! TA.AperFunction,Plated,PTH,ComponentDrill
T4C0.600
; #@! TA.AperFunction,Plated,PTH,ComponentDrill
T5C1.000
; #@! TA.AperFunction,Plated,PTH,ComponentDrill
T6C1.100
%
G90
G05
T1
X134.735Y-92.62
X134.735Y-94.145
X135.498Y-91.858
X135.498Y-93.382
X135.498Y-94.907
X136.26Y-92.62
X136.26Y-94.145
X137.023Y-91.858
X137.023Y-93.382
X137.023Y-94.907
X137.785Y-92.62
X137.785Y-94.145
X154.59Y-111.502
X154.59Y-112.703
X154.59Y-113.902
X155.99Y-111.502
X155.99Y-112.703
X155.99Y-113.902
T2
X120.5Y-120.5
X120.718Y-116.74
X131.074Y-108.596
X135.718Y-119.74
X136.968Y-98.74
X137.218Y-97.472
X137.718Y-121.24
X139.218Y-110.24
X139.218Y-113.49
X140.968Y-94.74
X140.968Y-97.24
X142.775Y-94.932
X143.468Y-98.99
X146.218Y-109.99
X147.968Y-88.24
X148.11Y-92.838
X148.968Y-94.49
X149.468Y-91.99
X151.0Y-117.75
X151.468Y-99.24
X152.668Y-96.175
X152.968Y-86.99
X152.968Y-97.49
X154.718Y-88.24
X154.718Y-97.49
X156.75Y-118.25
X156.968Y-93.24
X157.017Y-91.837
X158.218Y-99.24
X160.25Y-118.5
T3
X153.44Y-120.377
X153.44Y-121.727
X154.29Y-120.377
X154.29Y-121.727
X155.14Y-120.377
X155.14Y-121.727
X155.99Y-120.377
X155.99Y-121.727
X156.84Y-120.377
X156.84Y-121.727
X157.69Y-120.377
X157.69Y-121.727
X158.54Y-120.377
X158.54Y-121.727
X159.39Y-120.377
X159.39Y-121.727
T5
X114.468Y-87.54
X114.468Y-90.08
X114.468Y-92.62
X114.468Y-95.16
X114.468Y-97.7
X114.468Y-100.24
X114.468Y-102.78
X114.468Y-105.32
X141.218Y-126.49
X143.757Y-126.49
X159.822Y-86.46
X159.822Y-89.0
X159.822Y-91.54
X159.822Y-94.08
X159.822Y-96.62
X159.822Y-99.16
X159.822Y-101.7
X159.822Y-104.24
T6
X118.14Y-100.932
X118.14Y-105.432
X118.34Y-92.132
X118.34Y-96.632
X124.64Y-100.932
X124.64Y-105.432
X124.84Y-92.132
X124.84Y-96.632
X149.718Y-103.49
X149.718Y-107.99
X156.218Y-103.49
X156.218Y-107.99
T4
G00X152.09Y-120.607
M15
G01X152.09Y-122.107
M16
G05
G00X152.09Y-124.337
M15
G01X152.09Y-125.137
M16
G05
G00X160.74Y-120.607
M15
G01X160.74Y-122.107
M16
G05
G00X160.74Y-124.337
M15
G01X160.74Y-125.137
M16
G05
M30
