%TF.GenerationSoftware,KiCad,Pcbnew,9.0.1*%
%TF.CreationDate,2026-04-01T23:18:58+05:30*%
%TF.ProjectId,Smart AI Voice Note Device,536d6172-7420-4414-9920-566f69636520,rev?*%
%TF.SameCoordinates,Original*%
%TF.FileFunction,Copper,L1,Top*%
%TF.FilePolarity,Positive*%
%FSLAX46Y46*%
G04 Gerber Fmt 4.6, Leading zero omitted, Abs format (unit mm)*
G04 Created by KiCad (PCBNEW 9.0.1) date 2026-04-01 23:18:58*
%MOMM*%
%LPD*%
G01*
G04 APERTURE LIST*
G04 Aperture macros list*
%AMRoundRect*
0 Rectangle with rounded corners*
0 $1 Rounding radius*
0 $2 $3 $4 $5 $6 $7 $8 $9 X,Y pos of 4 corners*
0 Add a 4 corners polygon primitive as box body*
4,1,4,$2,$3,$4,$5,$6,$7,$8,$9,$2,$3,0*
0 Add four circle primitives for the rounded corners*
1,1,$1+$1,$2,$3*
1,1,$1+$1,$4,$5*
1,1,$1+$1,$6,$7*
1,1,$1+$1,$8,$9*
0 Add four rect primitives between the rounded corners*
20,1,$1+$1,$2,$3,$4,$5,0*
20,1,$1+$1,$4,$5,$6,$7,0*
20,1,$1+$1,$6,$7,$8,$9,0*
20,1,$1+$1,$8,$9,$2,$3,0*%
G04 Aperture macros list end*
%ADD10C,0.300000*%
%TA.AperFunction,NonConductor*%
%ADD11C,0.300000*%
%TD*%
%TA.AperFunction,SMDPad,CuDef*%
%ADD12RoundRect,0.200000X0.200000X0.275000X-0.200000X0.275000X-0.200000X-0.275000X0.200000X-0.275000X0*%
%TD*%
%TA.AperFunction,SMDPad,CuDef*%
%ADD13RoundRect,0.225000X-0.225000X-0.250000X0.225000X-0.250000X0.225000X0.250000X-0.225000X0.250000X0*%
%TD*%
%TA.AperFunction,SMDPad,CuDef*%
%ADD14RoundRect,0.062500X0.062500X-0.375000X0.062500X0.375000X-0.062500X0.375000X-0.062500X-0.375000X0*%
%TD*%
%TA.AperFunction,SMDPad,CuDef*%
%ADD15RoundRect,0.062500X0.375000X-0.062500X0.375000X0.062500X-0.375000X0.062500X-0.375000X-0.062500X0*%
%TD*%
%TA.AperFunction,HeatsinkPad*%
%ADD16R,3.100000X3.100000*%
%TD*%
%TA.AperFunction,SMDPad,CuDef*%
%ADD17RoundRect,0.200000X0.275000X-0.200000X0.275000X0.200000X-0.275000X0.200000X-0.275000X-0.200000X0*%
%TD*%
%TA.AperFunction,ComponentPad*%
%ADD18C,2.000000*%
%TD*%
%TA.AperFunction,SMDPad,CuDef*%
%ADD19RoundRect,0.200000X-0.275000X0.200000X-0.275000X-0.200000X0.275000X-0.200000X0.275000X0.200000X0*%
%TD*%
%TA.AperFunction,SMDPad,CuDef*%
%ADD20RoundRect,0.218750X-0.256250X0.218750X-0.256250X-0.218750X0.256250X-0.218750X0.256250X0.218750X0*%
%TD*%
%TA.AperFunction,SMDPad,CuDef*%
%ADD21RoundRect,0.250000X0.250000X0.475000X-0.250000X0.475000X-0.250000X-0.475000X0.250000X-0.475000X0*%
%TD*%
%TA.AperFunction,SMDPad,CuDef*%
%ADD22RoundRect,0.150000X0.825000X0.150000X-0.825000X0.150000X-0.825000X-0.150000X0.825000X-0.150000X0*%
%TD*%
%TA.AperFunction,HeatsinkPad*%
%ADD23C,0.500000*%
%TD*%
%TA.AperFunction,HeatsinkPad*%
%ADD24R,2.410000X3.300000*%
%TD*%
%TA.AperFunction,SMDPad,CuDef*%
%ADD25RoundRect,0.200000X-0.200000X-0.275000X0.200000X-0.275000X0.200000X0.275000X-0.200000X0.275000X0*%
%TD*%
%TA.AperFunction,SMDPad,CuDef*%
%ADD26RoundRect,0.375000X-0.625000X-0.375000X0.625000X-0.375000X0.625000X0.375000X-0.625000X0.375000X0*%
%TD*%
%TA.AperFunction,SMDPad,CuDef*%
%ADD27RoundRect,0.500000X-0.500000X-1.400000X0.500000X-1.400000X0.500000X1.400000X-0.500000X1.400000X0*%
%TD*%
%TA.AperFunction,ComponentPad*%
%ADD28R,1.700000X1.700000*%
%TD*%
%TA.AperFunction,ComponentPad*%
%ADD29C,1.700000*%
%TD*%
%TA.AperFunction,SMDPad,CuDef*%
%ADD30RoundRect,0.250000X-0.250000X-0.475000X0.250000X-0.475000X0.250000X0.475000X-0.250000X0.475000X0*%
%TD*%
%TA.AperFunction,SMDPad,CuDef*%
%ADD31R,1.500000X0.800000*%
%TD*%
%TA.AperFunction,SMDPad,CuDef*%
%ADD32RoundRect,0.362500X-0.637500X0.362500X-0.637500X-0.362500X0.637500X-0.362500X0.637500X0.362500X0*%
%TD*%
%TA.AperFunction,ComponentPad*%
%ADD33C,0.700000*%
%TD*%
%TA.AperFunction,ComponentPad*%
%ADD34O,0.900000X2.400000*%
%TD*%
%TA.AperFunction,ComponentPad*%
%ADD35O,0.900000X1.700000*%
%TD*%
%TA.AperFunction,SMDPad,CuDef*%
%ADD36RoundRect,0.218750X-0.218750X-0.256250X0.218750X-0.256250X0.218750X0.256250X-0.218750X0.256250X0*%
%TD*%
%TA.AperFunction,SMDPad,CuDef*%
%ADD37R,1.500000X0.900000*%
%TD*%
%TA.AperFunction,SMDPad,CuDef*%
%ADD38R,0.900000X1.500000*%
%TD*%
%TA.AperFunction,SMDPad,CuDef*%
%ADD39R,1.050000X1.050000*%
%TD*%
%TA.AperFunction,HeatsinkPad*%
%ADD40C,0.600000*%
%TD*%
%TA.AperFunction,HeatsinkPad*%
%ADD41R,4.200000X4.200000*%
%TD*%
%TA.AperFunction,ViaPad*%
%ADD42C,0.700000*%
%TD*%
%TA.AperFunction,ViaPad*%
%ADD43C,0.600000*%
%TD*%
%TA.AperFunction,Conductor*%
%ADD44C,0.300000*%
%TD*%
%TA.AperFunction,Conductor*%
%ADD45C,0.200000*%
%TD*%
%TA.AperFunction,Conductor*%
%ADD46C,0.250000*%
%TD*%
G04 APERTURE END LIST*
D10*
D11*
X114340225Y-127122257D02*
X114197368Y-127050828D01*
X114197368Y-127050828D02*
X113983082Y-127050828D01*
X113983082Y-127050828D02*
X113768796Y-127122257D01*
X113768796Y-127122257D02*
X113625939Y-127265114D01*
X113625939Y-127265114D02*
X113554510Y-127407971D01*
X113554510Y-127407971D02*
X113483082Y-127693685D01*
X113483082Y-127693685D02*
X113483082Y-127907971D01*
X113483082Y-127907971D02*
X113554510Y-128193685D01*
X113554510Y-128193685D02*
X113625939Y-128336542D01*
X113625939Y-128336542D02*
X113768796Y-128479400D01*
X113768796Y-128479400D02*
X113983082Y-128550828D01*
X113983082Y-128550828D02*
X114125939Y-128550828D01*
X114125939Y-128550828D02*
X114340225Y-128479400D01*
X114340225Y-128479400D02*
X114411653Y-128407971D01*
X114411653Y-128407971D02*
X114411653Y-127907971D01*
X114411653Y-127907971D02*
X114125939Y-127907971D01*
X115268796Y-128550828D02*
X115125939Y-128479400D01*
X115125939Y-128479400D02*
X115054510Y-128336542D01*
X115054510Y-128336542D02*
X115054510Y-127050828D01*
X116483082Y-128550828D02*
X116483082Y-127765114D01*
X116483082Y-127765114D02*
X116411653Y-127622257D01*
X116411653Y-127622257D02*
X116268796Y-127550828D01*
X116268796Y-127550828D02*
X115983082Y-127550828D01*
X115983082Y-127550828D02*
X115840224Y-127622257D01*
X116483082Y-128479400D02*
X116340224Y-128550828D01*
X116340224Y-128550828D02*
X115983082Y-128550828D01*
X115983082Y-128550828D02*
X115840224Y-128479400D01*
X115840224Y-128479400D02*
X115768796Y-128336542D01*
X115768796Y-128336542D02*
X115768796Y-128193685D01*
X115768796Y-128193685D02*
X115840224Y-128050828D01*
X115840224Y-128050828D02*
X115983082Y-127979400D01*
X115983082Y-127979400D02*
X116340224Y-127979400D01*
X116340224Y-127979400D02*
X116483082Y-127907971D01*
X117197367Y-127550828D02*
X117197367Y-128550828D01*
X117197367Y-127693685D02*
X117268796Y-127622257D01*
X117268796Y-127622257D02*
X117411653Y-127550828D01*
X117411653Y-127550828D02*
X117625939Y-127550828D01*
X117625939Y-127550828D02*
X117768796Y-127622257D01*
X117768796Y-127622257D02*
X117840225Y-127765114D01*
X117840225Y-127765114D02*
X117840225Y-128550828D01*
X119197368Y-128479400D02*
X119054510Y-128550828D01*
X119054510Y-128550828D02*
X118768796Y-128550828D01*
X118768796Y-128550828D02*
X118625939Y-128479400D01*
X118625939Y-128479400D02*
X118554510Y-128407971D01*
X118554510Y-128407971D02*
X118483082Y-128265114D01*
X118483082Y-128265114D02*
X118483082Y-127836542D01*
X118483082Y-127836542D02*
X118554510Y-127693685D01*
X118554510Y-127693685D02*
X118625939Y-127622257D01*
X118625939Y-127622257D02*
X118768796Y-127550828D01*
X118768796Y-127550828D02*
X119054510Y-127550828D01*
X119054510Y-127550828D02*
X119197368Y-127622257D01*
X120411653Y-128479400D02*
X120268796Y-128550828D01*
X120268796Y-128550828D02*
X119983082Y-128550828D01*
X119983082Y-128550828D02*
X119840224Y-128479400D01*
X119840224Y-128479400D02*
X119768796Y-128336542D01*
X119768796Y-128336542D02*
X119768796Y-127765114D01*
X119768796Y-127765114D02*
X119840224Y-127622257D01*
X119840224Y-127622257D02*
X119983082Y-127550828D01*
X119983082Y-127550828D02*
X120268796Y-127550828D01*
X120268796Y-127550828D02*
X120411653Y-127622257D01*
X120411653Y-127622257D02*
X120483082Y-127765114D01*
X120483082Y-127765114D02*
X120483082Y-127907971D01*
X120483082Y-127907971D02*
X119768796Y-128050828D01*
X121125938Y-128550828D02*
X121125938Y-127550828D01*
X121125938Y-127693685D02*
X121197367Y-127622257D01*
X121197367Y-127622257D02*
X121340224Y-127550828D01*
X121340224Y-127550828D02*
X121554510Y-127550828D01*
X121554510Y-127550828D02*
X121697367Y-127622257D01*
X121697367Y-127622257D02*
X121768796Y-127765114D01*
X121768796Y-127765114D02*
X121768796Y-128550828D01*
X121768796Y-127765114D02*
X121840224Y-127622257D01*
X121840224Y-127622257D02*
X121983081Y-127550828D01*
X121983081Y-127550828D02*
X122197367Y-127550828D01*
X122197367Y-127550828D02*
X122340224Y-127622257D01*
X122340224Y-127622257D02*
X122411653Y-127765114D01*
X122411653Y-127765114D02*
X122411653Y-128550828D01*
X123697367Y-128479400D02*
X123554510Y-128550828D01*
X123554510Y-128550828D02*
X123268796Y-128550828D01*
X123268796Y-128550828D02*
X123125938Y-128479400D01*
X123125938Y-128479400D02*
X123054510Y-128336542D01*
X123054510Y-128336542D02*
X123054510Y-127765114D01*
X123054510Y-127765114D02*
X123125938Y-127622257D01*
X123125938Y-127622257D02*
X123268796Y-127550828D01*
X123268796Y-127550828D02*
X123554510Y-127550828D01*
X123554510Y-127550828D02*
X123697367Y-127622257D01*
X123697367Y-127622257D02*
X123768796Y-127765114D01*
X123768796Y-127765114D02*
X123768796Y-127907971D01*
X123768796Y-127907971D02*
X123054510Y-128050828D01*
X124411652Y-128407971D02*
X124483081Y-128479400D01*
X124483081Y-128479400D02*
X124411652Y-128550828D01*
X124411652Y-128550828D02*
X124340224Y-128479400D01*
X124340224Y-128479400D02*
X124411652Y-128407971D01*
X124411652Y-128407971D02*
X124411652Y-128550828D01*
X125054510Y-128122257D02*
X125768796Y-128122257D01*
X124911653Y-128550828D02*
X125411653Y-127050828D01*
X125411653Y-127050828D02*
X125911653Y-128550828D01*
X126411652Y-128550828D02*
X126411652Y-127550828D01*
X126411652Y-127050828D02*
X126340224Y-127122257D01*
X126340224Y-127122257D02*
X126411652Y-127193685D01*
X126411652Y-127193685D02*
X126483081Y-127122257D01*
X126483081Y-127122257D02*
X126411652Y-127050828D01*
X126411652Y-127050828D02*
X126411652Y-127193685D01*
D10*
D11*
X180304510Y-176550828D02*
X180304510Y-175050828D01*
X180304510Y-175050828D02*
X180875939Y-175050828D01*
X180875939Y-175050828D02*
X181018796Y-175122257D01*
X181018796Y-175122257D02*
X181090225Y-175193685D01*
X181090225Y-175193685D02*
X181161653Y-175336542D01*
X181161653Y-175336542D02*
X181161653Y-175550828D01*
X181161653Y-175550828D02*
X181090225Y-175693685D01*
X181090225Y-175693685D02*
X181018796Y-175765114D01*
X181018796Y-175765114D02*
X180875939Y-175836542D01*
X180875939Y-175836542D02*
X180304510Y-175836542D01*
X181804510Y-175050828D02*
X181804510Y-176265114D01*
X181804510Y-176265114D02*
X181875939Y-176407971D01*
X181875939Y-176407971D02*
X181947368Y-176479400D01*
X181947368Y-176479400D02*
X182090225Y-176550828D01*
X182090225Y-176550828D02*
X182375939Y-176550828D01*
X182375939Y-176550828D02*
X182518796Y-176479400D01*
X182518796Y-176479400D02*
X182590225Y-176407971D01*
X182590225Y-176407971D02*
X182661653Y-176265114D01*
X182661653Y-176265114D02*
X182661653Y-175050828D01*
X183375939Y-176550828D02*
X183375939Y-175050828D01*
X183375939Y-175050828D02*
X184233082Y-176550828D01*
X184233082Y-176550828D02*
X184233082Y-175050828D01*
X184947368Y-176550828D02*
X184947368Y-175050828D01*
X184947368Y-175765114D02*
X185804511Y-175765114D01*
X185804511Y-176550828D02*
X185804511Y-175050828D01*
X186447369Y-176122257D02*
X187161655Y-176122257D01*
X186304512Y-176550828D02*
X186804512Y-175050828D01*
X186804512Y-175050828D02*
X187304512Y-176550828D01*
D12*
%TO.P,R6,1*%
%TO.N,Net-(U3-EN)*%
X125415000Y-89582500D03*
%TO.P,R6,2*%
%TO.N,3.3v*%
X123765000Y-89582500D03*
%TD*%
D13*
%TO.P,C1,1*%
%TO.N,3.3v*%
X153192500Y-117240000D03*
%TO.P,C1,2*%
%TO.N,GND*%
X154742500Y-117240000D03*
%TD*%
D14*
%TO.P,U4,1,I2C*%
%TO.N,unconnected-(U4-I2C-Pad1)*%
X151405000Y-94725000D03*
%TO.P,U4,2,PVDD*%
%TO.N,3.3v*%
X151905000Y-94725000D03*
%TO.P,U4,3,DVDD*%
X152405000Y-94725000D03*
%TO.P,U4,4,DVSS*%
%TO.N,GND*%
X152905000Y-94725000D03*
%TO.P,U4,5,PVSS*%
X153405000Y-94725000D03*
%TO.P,U4,6,NRSTPD*%
%TO.N,GPIO4*%
X153905000Y-94725000D03*
%TO.P,U4,7,MFIN*%
%TO.N,unconnected-(U4-MFIN-Pad7)*%
X154405000Y-94725000D03*
%TO.P,U4,8,MFOUT*%
%TO.N,unconnected-(U4-MFOUT-Pad8)*%
X154905000Y-94725000D03*
D15*
%TO.P,U4,9,SVDD*%
%TO.N,3.3v*%
X155592500Y-94037500D03*
%TO.P,U4,10,TVSS*%
%TO.N,GND*%
X155592500Y-93537500D03*
%TO.P,U4,11,TX1*%
%TO.N,unconnected-(U4-TX1-Pad11)*%
X155592500Y-93037500D03*
%TO.P,U4,12,TVDD*%
%TO.N,3.3v*%
X155592500Y-92537500D03*
%TO.P,U4,13,TX2*%
%TO.N,unconnected-(U4-TX2-Pad13)*%
X155592500Y-92037500D03*
%TO.P,U4,14,TVSS*%
%TO.N,GND*%
X155592500Y-91537500D03*
%TO.P,U4,15,AVDD*%
%TO.N,3.3v*%
X155592500Y-91037500D03*
%TO.P,U4,16,VMID*%
%TO.N,unconnected-(U4-VMID-Pad16)*%
X155592500Y-90537500D03*
D14*
%TO.P,U4,17,RX*%
%TO.N,unconnected-(U4-RX-Pad17)*%
X154905000Y-89850000D03*
%TO.P,U4,18,AVSS*%
%TO.N,GND*%
X154405000Y-89850000D03*
%TO.P,U4,19,AUX1*%
%TO.N,unconnected-(U4-AUX1-Pad19)*%
X153905000Y-89850000D03*
%TO.P,U4,20,AUX2*%
%TO.N,unconnected-(U4-AUX2-Pad20)*%
X153405000Y-89850000D03*
%TO.P,U4,21,OSCIN*%
%TO.N,unconnected-(U4-OSCIN-Pad21)*%
X152905000Y-89850000D03*
%TO.P,U4,22,OSCOUT*%
%TO.N,unconnected-(U4-OSCOUT-Pad22)*%
X152405000Y-89850000D03*
%TO.P,U4,23,IRQ*%
%TO.N,unconnected-(U4-IRQ-Pad23)*%
X151905000Y-89850000D03*
%TO.P,U4,24,SDA/NSS/RX*%
%TO.N,GPIO21*%
X151405000Y-89850000D03*
D15*
%TO.P,U4,25,D1/ADR_5*%
%TO.N,unconnected-(U4-D1{slash}ADR_5-Pad25)*%
X150717500Y-90537500D03*
%TO.P,U4,26,D2/ADR_4*%
%TO.N,unconnected-(U4-D2{slash}ADR_4-Pad26)*%
X150717500Y-91037500D03*
%TO.P,U4,27,D3/ADR_3*%
%TO.N,unconnected-(U4-D3{slash}ADR_3-Pad27)*%
X150717500Y-91537500D03*
%TO.P,U4,28,D4/ADR_2*%
%TO.N,unconnected-(U4-D4{slash}ADR_2-Pad28)*%
X150717500Y-92037500D03*
%TO.P,U4,29,D5/ADR_1/SCK/DTRQ*%
%TO.N,GPIO18*%
X150717500Y-92537500D03*
%TO.P,U4,30,D6/ADR_0/MOSI/MX*%
%TO.N,GPIO23*%
X150717500Y-93037500D03*
%TO.P,U4,31,D7/SCL/MISO/TX*%
%TO.N,GPIO19*%
X150717500Y-93537500D03*
%TO.P,U4,32,EA*%
%TO.N,unconnected-(U4-EA-Pad32)*%
X150717500Y-94037500D03*
D16*
%TO.P,U4,33,EXP*%
%TO.N,unconnected-(U4-EXP-Pad33)*%
X153155000Y-92287500D03*
%TD*%
D17*
%TO.P,R4,1*%
%TO.N,Net-(U1-PROG)*%
X159967500Y-112065000D03*
%TO.P,R4,2*%
%TO.N,GND*%
X159967500Y-110415000D03*
%TD*%
D18*
%TO.P,SW3,1,1*%
%TO.N,Net-(U3-IO0)*%
X156217500Y-107990000D03*
X149717500Y-107990000D03*
%TO.P,SW3,2,2*%
%TO.N,Net-(R7-Pad1)*%
X156217500Y-103490000D03*
X149717500Y-103490000D03*
%TD*%
D19*
%TO.P,R9,1*%
%TO.N,3.3v*%
X130217500Y-119415000D03*
%TO.P,R9,2*%
%TO.N,GPIO19*%
X130217500Y-121065000D03*
%TD*%
D20*
%TO.P,D1,1,K*%
%TO.N,Net-(D1-K)*%
X149717500Y-122952500D03*
%TO.P,D1,2,A*%
%TO.N,Net-(D1-A)*%
X149717500Y-124527500D03*
%TD*%
%TO.P,D3,1,K*%
%TO.N,GND*%
X149717500Y-98452500D03*
%TO.P,D3,2,A*%
%TO.N,Net-(D3-A)*%
X149717500Y-100027500D03*
%TD*%
D19*
%TO.P,R14,1*%
%TO.N,Net-(U3-IO15)*%
X136467500Y-106915000D03*
%TO.P,R14,2*%
%TO.N,GND*%
X136467500Y-108565000D03*
%TD*%
%TO.P,R13,1*%
%TO.N,Net-(U3-IO2)*%
X139217500Y-106915000D03*
%TO.P,R13,2*%
%TO.N,3.3v*%
X139217500Y-108565000D03*
%TD*%
D17*
%TO.P,R7,1*%
%TO.N,Net-(R7-Pad1)*%
X156717500Y-99565000D03*
%TO.P,R7,2*%
%TO.N,3.3v*%
X156717500Y-97915000D03*
%TD*%
D21*
%TO.P,C3,1*%
%TO.N,Net-(BT1-+)*%
X144917500Y-122990000D03*
%TO.P,C3,2*%
%TO.N,GND*%
X143017500Y-122990000D03*
%TD*%
D22*
%TO.P,U1,1,TEMP*%
%TO.N,Net-(U1-TEMP)*%
X157765000Y-114607500D03*
%TO.P,U1,2,PROG*%
%TO.N,Net-(U1-PROG)*%
X157765000Y-113337500D03*
%TO.P,U1,3,GND*%
%TO.N,GND*%
X157765000Y-112067500D03*
%TO.P,U1,4,V_{CC}*%
%TO.N,3.3v*%
X157765000Y-110797500D03*
%TO.P,U1,5,BAT*%
%TO.N,Net-(BT1-+)*%
X152815000Y-110797500D03*
%TO.P,U1,6,~{STDBY}*%
%TO.N,Net-(D2-K)*%
X152815000Y-112067500D03*
%TO.P,U1,7,~{CHRG}*%
%TO.N,Net-(D1-K)*%
X152815000Y-113337500D03*
%TO.P,U1,8,CE*%
%TO.N,3.3v*%
X152815000Y-114607500D03*
D23*
%TO.P,U1,9,EPAD*%
%TO.N,GND*%
X155990000Y-113902500D03*
X155990000Y-112702500D03*
X155990000Y-111502500D03*
D24*
X155290000Y-112702500D03*
D23*
X154590000Y-113902500D03*
X154590000Y-112702500D03*
X154590000Y-111502500D03*
%TD*%
D25*
%TO.P,R12,1*%
%TO.N,Net-(D4-A)*%
X132392500Y-107240000D03*
%TO.P,R12,2*%
%TO.N,Net-(U3-IO13)*%
X134042500Y-107240000D03*
%TD*%
D26*
%TO.P,U2,1,GND*%
%TO.N,GND*%
X130317500Y-123440000D03*
%TO.P,U2,2,VO*%
%TO.N,3.3v*%
X130317500Y-125740000D03*
D27*
X136617500Y-125740000D03*
D26*
%TO.P,U2,3,VI*%
%TO.N,Net-(BT1-+)*%
X130317500Y-128040000D03*
%TD*%
D13*
%TO.P,C5,1*%
%TO.N,GND*%
X152942500Y-99990000D03*
%TO.P,C5,2*%
%TO.N,3.3v*%
X154492500Y-99990000D03*
%TD*%
D17*
%TO.P,R5,1*%
%TO.N,3.3v*%
X147467500Y-128065000D03*
%TO.P,R5,2*%
%TO.N,Net-(D2-A)*%
X147467500Y-126415000D03*
%TD*%
D18*
%TO.P,SW2,1,1*%
%TO.N,Net-(U3-IO35)*%
X118140000Y-100932500D03*
X124640000Y-100932500D03*
%TO.P,SW2,2,2*%
%TO.N,GND*%
X118140000Y-105432500D03*
X124640000Y-105432500D03*
%TD*%
%TO.P,SW1,1,1*%
%TO.N,Net-(U3-IO34)*%
X118340000Y-92132500D03*
X124840000Y-92132500D03*
%TO.P,SW1,2,2*%
%TO.N,GND*%
X118340000Y-96632500D03*
X124840000Y-96632500D03*
%TD*%
D28*
%TO.P,BT1,1,+*%
%TO.N,Net-(BT1-+)*%
X143757500Y-126490000D03*
D29*
%TO.P,BT1,2,-*%
%TO.N,GND*%
X141217500Y-126490000D03*
%TD*%
D25*
%TO.P,R1,1*%
%TO.N,Net-(P1-CC)*%
X158392500Y-117000000D03*
%TO.P,R1,2*%
%TO.N,GND*%
X160042500Y-117000000D03*
%TD*%
D19*
%TO.P,R11,1*%
%TO.N,Net-(U3-IO16)*%
X147717500Y-98415000D03*
%TO.P,R11,2*%
%TO.N,Net-(D3-A)*%
X147717500Y-100065000D03*
%TD*%
D30*
%TO.P,C4,1*%
%TO.N,3.3v*%
X133767500Y-115990000D03*
%TO.P,C4,2*%
%TO.N,GND*%
X135667500Y-115990000D03*
%TD*%
D20*
%TO.P,D2,1,K*%
%TO.N,Net-(D2-K)*%
X147467500Y-122915000D03*
%TO.P,D2,2,A*%
%TO.N,Net-(D2-A)*%
X147467500Y-124490000D03*
%TD*%
D19*
%TO.P,R10,1*%
%TO.N,GPIO5*%
X130217500Y-112915000D03*
%TO.P,R10,2*%
%TO.N,3.3v*%
X130217500Y-114565000D03*
%TD*%
D31*
%TO.P,J1,1,DAT2*%
%TO.N,unconnected-(J1-DAT2-Pad1)*%
X123045000Y-114047500D03*
%TO.P,J1,2,DAT3/CD*%
%TO.N,GPIO5*%
X123045000Y-115147500D03*
%TO.P,J1,3,CMD*%
%TO.N,GPIO23*%
X123045000Y-116247500D03*
%TO.P,J1,4,VDD*%
%TO.N,3.3v*%
X123045000Y-117347500D03*
%TO.P,J1,5,CLK*%
%TO.N,GPIO18*%
X123045000Y-118447500D03*
%TO.P,J1,6,VSS*%
%TO.N,GND*%
X123045000Y-119547500D03*
%TO.P,J1,7,DAT0*%
%TO.N,GPIO19*%
X123045000Y-120647500D03*
%TO.P,J1,8,DAT1*%
%TO.N,unconnected-(J1-DAT1-Pad8)*%
X123045000Y-121747500D03*
D32*
%TO.P,J1,9,SHIELD*%
%TO.N,unconnected-(J1-SHIELD-Pad9)_2*%
X125645000Y-110377500D03*
%TO.N,unconnected-(J1-SHIELD-Pad9)_1*%
X117345000Y-110377500D03*
%TO.N,unconnected-(J1-SHIELD-Pad9)*%
X125645000Y-124127500D03*
%TO.N,unconnected-(J1-SHIELD-Pad9)_3*%
X117345000Y-124127500D03*
%TD*%
D19*
%TO.P,R2,1*%
%TO.N,Net-(U1-TEMP)*%
X159990000Y-113415000D03*
%TO.P,R2,2*%
%TO.N,GND*%
X159990000Y-115065000D03*
%TD*%
D21*
%TO.P,C2,1*%
%TO.N,Net-(BT1-+)*%
X145167500Y-119740000D03*
%TO.P,C2,2*%
%TO.N,GND*%
X143267500Y-119740000D03*
%TD*%
D13*
%TO.P,C6,1*%
%TO.N,3.3v*%
X133942500Y-118240000D03*
%TO.P,C6,2*%
%TO.N,GND*%
X135492500Y-118240000D03*
%TD*%
D17*
%TO.P,R8,1*%
%TO.N,GPIO23*%
X130217500Y-117815000D03*
%TO.P,R8,2*%
%TO.N,3.3v*%
X130217500Y-116165000D03*
%TD*%
D28*
%TO.P,MK1,1,SCK*%
%TO.N,GPIO26*%
X159822500Y-104240000D03*
D29*
%TO.P,MK1,2,SD*%
%TO.N,GPIO22*%
X159822500Y-101700000D03*
%TO.P,MK1,3,WS*%
%TO.N,GPIO25*%
X159822500Y-99160000D03*
%TO.P,MK1,4,L/R*%
%TO.N,GND*%
X159822500Y-96620000D03*
%TO.P,MK1,5,GND*%
X159822500Y-94080000D03*
%TO.P,MK1,6,GND*%
X159822500Y-91540000D03*
%TO.P,MK1,7,VDD*%
%TO.N,3.3v*%
X159822500Y-89000000D03*
%TO.P,MK1,8,CHIPEN*%
X159822500Y-86460000D03*
%TD*%
D33*
%TO.P,P1,A1,GND*%
%TO.N,GND*%
X153440000Y-120377500D03*
%TO.P,P1,A4,VBUS*%
%TO.N,3.3v*%
X154290000Y-120377500D03*
%TO.P,P1,A5,CC*%
%TO.N,Net-(P1-CC)*%
X155140000Y-120377500D03*
%TO.P,P1,A6,D+*%
%TO.N,unconnected-(P1-D+-PadA6)*%
X155990000Y-120377500D03*
%TO.P,P1,A7,D-*%
%TO.N,unconnected-(P1-D--PadA7)*%
X156840000Y-120377500D03*
%TO.P,P1,A8*%
%TO.N,N/C*%
X157690000Y-120377500D03*
%TO.P,P1,A9,VBUS*%
%TO.N,3.3v*%
X158540000Y-120377500D03*
%TO.P,P1,A12,GND*%
%TO.N,GND*%
X159390000Y-120377500D03*
%TO.P,P1,B1,GND*%
X159390000Y-121727500D03*
%TO.P,P1,B4,VBUS*%
%TO.N,3.3v*%
X158540000Y-121727500D03*
%TO.P,P1,B5,VCONN*%
%TO.N,unconnected-(P1-VCONN-PadB5)*%
X157690000Y-121727500D03*
%TO.P,P1,B6*%
%TO.N,N/C*%
X156840000Y-121727500D03*
%TO.P,P1,B7*%
X155990000Y-121727500D03*
%TO.P,P1,B8*%
X155140000Y-121727500D03*
%TO.P,P1,B9,VBUS*%
%TO.N,3.3v*%
X154290000Y-121727500D03*
%TO.P,P1,B12,GND*%
%TO.N,GND*%
X153440000Y-121727500D03*
D34*
%TO.P,P1,S1,SHIELD*%
%TO.N,unconnected-(P1-SHIELD-PadS1)_1*%
X152090000Y-121357500D03*
D35*
%TO.N,unconnected-(P1-SHIELD-PadS1)_2*%
X152090000Y-124737500D03*
D34*
%TO.N,unconnected-(P1-SHIELD-PadS1)_3*%
X160740000Y-121357500D03*
D35*
%TO.N,unconnected-(P1-SHIELD-PadS1)*%
X160740000Y-124737500D03*
%TD*%
D28*
%TO.P,MK2,1,SCK*%
%TO.N,GPIO12*%
X114467500Y-105320000D03*
D29*
%TO.P,MK2,2,SD*%
%TO.N,GPIO27*%
X114467500Y-102780000D03*
%TO.P,MK2,3,WS*%
%TO.N,GPIO14*%
X114467500Y-100240000D03*
%TO.P,MK2,4,L/R*%
%TO.N,GND*%
X114467500Y-97700000D03*
%TO.P,MK2,5,GND*%
X114467500Y-95160000D03*
%TO.P,MK2,6,GND*%
X114467500Y-92620000D03*
%TO.P,MK2,7,VDD*%
%TO.N,3.3v*%
X114467500Y-90080000D03*
%TO.P,MK2,8,CHIPEN*%
X114467500Y-87540000D03*
%TD*%
D17*
%TO.P,R3,1*%
%TO.N,3.3v*%
X149717500Y-128065000D03*
%TO.P,R3,2*%
%TO.N,Net-(D1-A)*%
X149717500Y-126415000D03*
%TD*%
D36*
%TO.P,D4,1,K*%
%TO.N,GND*%
X132430000Y-110240000D03*
%TO.P,D4,2,A*%
%TO.N,Net-(D4-A)*%
X134005000Y-110240000D03*
%TD*%
D37*
%TO.P,U3,1,GND*%
%TO.N,GND*%
X128190000Y-86042500D03*
%TO.P,U3,2,VDD*%
%TO.N,3.3v*%
X128190000Y-87312500D03*
%TO.P,U3,3,EN*%
%TO.N,Net-(U3-EN)*%
X128190000Y-88582500D03*
%TO.P,U3,4,SENSOR_VP*%
%TO.N,unconnected-(U3-SENSOR_VP-Pad4)*%
X128190000Y-89852500D03*
%TO.P,U3,5,SENSOR_VN*%
%TO.N,unconnected-(U3-SENSOR_VN-Pad5)*%
X128190000Y-91122500D03*
%TO.P,U3,6,IO34*%
%TO.N,Net-(U3-IO34)*%
X128190000Y-92392500D03*
%TO.P,U3,7,IO35*%
%TO.N,Net-(U3-IO35)*%
X128190000Y-93662500D03*
%TO.P,U3,8,IO32*%
%TO.N,unconnected-(U3-IO32-Pad8)*%
X128190000Y-94932500D03*
%TO.P,U3,9,IO33*%
%TO.N,unconnected-(U3-IO33-Pad9)*%
X128190000Y-96202500D03*
%TO.P,U3,10,IO25*%
%TO.N,GPIO25*%
X128190000Y-97472500D03*
%TO.P,U3,11,IO26*%
%TO.N,GPIO26*%
X128190000Y-98742500D03*
%TO.P,U3,12,IO27*%
%TO.N,GPIO27*%
X128190000Y-100012500D03*
%TO.P,U3,13,IO14*%
%TO.N,GPIO14*%
X128190000Y-101282500D03*
%TO.P,U3,14,IO12*%
%TO.N,GPIO12*%
X128190000Y-102552500D03*
D38*
%TO.P,U3,15,GND*%
%TO.N,GND*%
X131230000Y-103802500D03*
%TO.P,U3,16,IO13*%
%TO.N,Net-(U3-IO13)*%
X132500000Y-103802500D03*
%TO.P,U3,17,SHD/SD2*%
%TO.N,unconnected-(U3-SHD{slash}SD2-Pad17)*%
X133770000Y-103802500D03*
%TO.P,U3,18,SWP/SD3*%
%TO.N,unconnected-(U3-SWP{slash}SD3-Pad18)*%
X135040000Y-103802500D03*
%TO.P,U3,19,SCS/CMD*%
%TO.N,unconnected-(U3-SCS{slash}CMD-Pad19)*%
X136310000Y-103802500D03*
%TO.P,U3,20,SCK/CLK*%
%TO.N,unconnected-(U3-SCK{slash}CLK-Pad20)*%
X137580000Y-103802500D03*
%TO.P,U3,21,SDO/SD0*%
%TO.N,unconnected-(U3-SDO{slash}SD0-Pad21)*%
X138850000Y-103802500D03*
%TO.P,U3,22,SDI/SD1*%
%TO.N,unconnected-(U3-SDI{slash}SD1-Pad22)*%
X140120000Y-103802500D03*
%TO.P,U3,23,IO15*%
%TO.N,Net-(U3-IO15)*%
X141390000Y-103802500D03*
%TO.P,U3,24,IO2*%
%TO.N,Net-(U3-IO2)*%
X142660000Y-103802500D03*
D37*
%TO.P,U3,25,IO0*%
%TO.N,Net-(U3-IO0)*%
X145690000Y-102552500D03*
%TO.P,U3,26,IO4*%
%TO.N,GPIO4*%
X145690000Y-101282500D03*
%TO.P,U3,27,IO16*%
%TO.N,Net-(U3-IO16)*%
X145690000Y-100012500D03*
%TO.P,U3,28,IO17*%
%TO.N,unconnected-(U3-IO17-Pad28)*%
X145690000Y-98742500D03*
%TO.P,U3,29,IO5*%
%TO.N,GPIO5*%
X145690000Y-97472500D03*
%TO.P,U3,30,IO18*%
%TO.N,GPIO18*%
X145690000Y-96202500D03*
%TO.P,U3,31,IO19*%
%TO.N,GPIO19*%
X145690000Y-94932500D03*
%TO.P,U3,32,NC*%
%TO.N,unconnected-(U3-NC-Pad32)*%
X145690000Y-93662500D03*
%TO.P,U3,33,IO21*%
%TO.N,GPIO21*%
X145690000Y-92392500D03*
%TO.P,U3,34,RXD0/IO3*%
%TO.N,unconnected-(U3-RXD0{slash}IO3-Pad34)*%
X145690000Y-91122500D03*
%TO.P,U3,35,TXD0/IO1*%
%TO.N,unconnected-(U3-TXD0{slash}IO1-Pad35)*%
X145690000Y-89852500D03*
%TO.P,U3,36,IO22*%
%TO.N,GPIO22*%
X145690000Y-88582500D03*
%TO.P,U3,37,IO23*%
%TO.N,GPIO23*%
X145690000Y-87312500D03*
%TO.P,U3,38,GND*%
%TO.N,GND*%
X145690000Y-86042500D03*
D39*
%TO.P,U3,39,GND*%
X134735000Y-91857500D03*
D40*
X134735000Y-92620000D03*
D39*
X134735000Y-93382500D03*
D40*
X134735000Y-94145000D03*
D39*
X134735000Y-94907500D03*
D40*
X135497500Y-91857500D03*
X135497500Y-93382500D03*
X135497500Y-94907500D03*
D39*
X136260000Y-91857500D03*
D40*
X136260000Y-92620000D03*
D39*
X136260000Y-93382500D03*
D41*
X136260000Y-93382500D03*
D40*
X136260000Y-94145000D03*
D39*
X136260000Y-94907500D03*
D40*
X137022500Y-91857500D03*
X137022500Y-93382500D03*
X137022500Y-94907500D03*
D39*
X137785000Y-91857500D03*
D40*
X137785000Y-92620000D03*
D39*
X137785000Y-93382500D03*
D40*
X137785000Y-94145000D03*
D39*
X137785000Y-94907500D03*
%TD*%
D42*
%TO.N,GND*%
X131073750Y-108596250D03*
D43*
X160250000Y-118500000D03*
D42*
X157017500Y-91837500D03*
X154717500Y-88240000D03*
X135717500Y-119740000D03*
X152667505Y-96175045D03*
X156967500Y-93240000D03*
X154717500Y-97490000D03*
X137717500Y-121240000D03*
%TO.N,3.3v*%
X120500000Y-120500000D03*
X146217500Y-109990000D03*
X139217500Y-110240000D03*
D43*
X151000000Y-117750000D03*
D42*
X139217500Y-113490000D03*
X120717500Y-116740000D03*
%TO.N,GPIO18*%
X149467500Y-91990000D03*
X148967500Y-94490000D03*
%TO.N,GPIO23*%
X147967500Y-88240000D03*
X140967500Y-94740000D03*
X148109949Y-92837501D03*
X140967500Y-97240000D03*
%TO.N,GPIO19*%
X142775000Y-94932500D03*
X143467500Y-98990000D03*
%TO.N,GPIO25*%
X137217500Y-97472500D03*
%TO.N,GPIO22*%
X158217500Y-99240000D03*
X152967500Y-86990000D03*
%TO.N,GPIO26*%
X136967500Y-98740000D03*
D43*
%TO.N,Net-(P1-CC)*%
X156750000Y-118250000D03*
D42*
%TO.N,GPIO4*%
X152967500Y-97490000D03*
X151467500Y-99240000D03*
%TD*%
D44*
%TO.N,Net-(BT1-+)*%
X150250000Y-111000000D02*
X150750000Y-111000000D01*
X143757500Y-126490000D02*
X144217500Y-126950000D01*
X144217500Y-126950000D02*
X144217500Y-128490000D01*
X144917500Y-122990000D02*
X144917500Y-123440000D01*
X148715500Y-115044961D02*
X150250000Y-113510461D01*
X143757500Y-124600000D02*
X143757500Y-126490000D01*
X150250000Y-113510461D02*
X150250000Y-111000000D01*
X148715500Y-119283480D02*
X148715500Y-115044961D01*
X150750000Y-111000000D02*
X151000000Y-110750000D01*
X145167500Y-119940000D02*
X144917500Y-120190000D01*
X144917500Y-123440000D02*
X143757500Y-124600000D01*
X130767500Y-128490000D02*
X130317500Y-128040000D01*
X148258980Y-119740000D02*
X148715500Y-119283480D01*
X152767500Y-110750000D02*
X152815000Y-110797500D01*
X145167500Y-122740000D02*
X144917500Y-122990000D01*
X145167500Y-119740000D02*
X145167500Y-122740000D01*
X145167500Y-119740000D02*
X145167500Y-119940000D01*
X144217500Y-128490000D02*
X130767500Y-128490000D01*
X151000000Y-110750000D02*
X152767500Y-110750000D01*
X145167500Y-119740000D02*
X148258980Y-119740000D01*
%TO.N,GND*%
X136467500Y-109064310D02*
X134465810Y-111066000D01*
X135467500Y-123440000D02*
X130317500Y-123440000D01*
X159822500Y-96620000D02*
X159822500Y-94080000D01*
X159822500Y-94080000D02*
X159822500Y-91540000D01*
X156247500Y-114160000D02*
X155990000Y-113902500D01*
X159990000Y-117187500D02*
X160042500Y-117240000D01*
X135492500Y-118240000D02*
X135717500Y-118465000D01*
X152667505Y-96175045D02*
X152905000Y-95937550D01*
X143267500Y-119740000D02*
X141767500Y-121240000D01*
X152942500Y-99990000D02*
X152942500Y-99515000D01*
X154405000Y-88552500D02*
X154717500Y-88240000D01*
X157017500Y-91837500D02*
X156815000Y-91837500D01*
X155592500Y-93537500D02*
X156670000Y-93537500D01*
X135492500Y-118240000D02*
X135492500Y-116165000D01*
X135492500Y-123440000D02*
X135467500Y-123440000D01*
X153405000Y-94725000D02*
X152905000Y-94725000D01*
D45*
X160042500Y-117000000D02*
X160042500Y-118292500D01*
D44*
X151880000Y-98452500D02*
X149717500Y-98452500D01*
X137022500Y-91857500D02*
X142837500Y-86042500D01*
D45*
X160042500Y-118292500D02*
X160250000Y-118500000D01*
D44*
X152905000Y-94725000D02*
X152905000Y-95937550D01*
X135717500Y-119740000D02*
X133992500Y-119740000D01*
X159990000Y-115065000D02*
X159990000Y-117187500D01*
X156515000Y-91537500D02*
X155592500Y-91537500D01*
X133482500Y-120250000D02*
X124797500Y-120250000D01*
X159372500Y-120360000D02*
X159390000Y-120377500D01*
X136467500Y-108565000D02*
X136467500Y-109064310D01*
X134465810Y-111066000D02*
X133256000Y-111066000D01*
X133256000Y-111066000D02*
X132430000Y-110240000D01*
X152942500Y-99515000D02*
X151880000Y-98452500D01*
X154590000Y-111502500D02*
X154590000Y-112702500D01*
X131230000Y-108440000D02*
X130930000Y-108740000D01*
X135717500Y-118465000D02*
X135717500Y-119740000D01*
X143517500Y-119490000D02*
X143267500Y-119740000D01*
X142837500Y-86042500D02*
X145690000Y-86042500D01*
X154717500Y-97490000D02*
X152942500Y-99265000D01*
X129240000Y-86042500D02*
X134735000Y-91537500D01*
X154742500Y-117240000D02*
X155000000Y-116982500D01*
X159967500Y-110415000D02*
X158315000Y-112067500D01*
X141217500Y-126490000D02*
X143017500Y-124690000D01*
X130930000Y-108740000D02*
X131073750Y-108596250D01*
X156555000Y-112067500D02*
X155990000Y-111502500D01*
X137717500Y-121240000D02*
X137692500Y-121240000D01*
X158315000Y-112067500D02*
X157765000Y-112067500D01*
X134735000Y-91537500D02*
X134735000Y-91857500D01*
X135492500Y-116165000D02*
X135667500Y-115990000D01*
X152905000Y-95937550D02*
X152905000Y-95802500D01*
X128190000Y-86042500D02*
X129240000Y-86042500D01*
X132430000Y-110240000D02*
X130930000Y-108740000D01*
X155000000Y-114312500D02*
X154590000Y-113902500D01*
X143017500Y-124690000D02*
X143017500Y-122990000D01*
X156815000Y-91837500D02*
X156515000Y-91537500D01*
X131230000Y-103802500D02*
X131230000Y-108440000D01*
X141767500Y-121740000D02*
X143017500Y-122990000D01*
X133992500Y-119740000D02*
X133482500Y-120250000D01*
X141767500Y-121240000D02*
X141767500Y-121740000D01*
X124095000Y-119547500D02*
X123045000Y-119547500D01*
X152942500Y-99265000D02*
X152942500Y-99990000D01*
X141767500Y-121240000D02*
X137717500Y-121240000D01*
X159820000Y-91537500D02*
X159822500Y-91540000D01*
X155000000Y-116982500D02*
X155000000Y-114312500D01*
X124797500Y-120250000D02*
X124095000Y-119547500D01*
X156670000Y-93537500D02*
X156967500Y-93240000D01*
X157765000Y-112067500D02*
X156555000Y-112067500D01*
X137692500Y-121240000D02*
X135492500Y-123440000D01*
X154405000Y-89850000D02*
X154405000Y-88552500D01*
%TO.N,3.3v*%
X120500000Y-120500000D02*
X120500000Y-122250000D01*
X159822500Y-86460000D02*
X157717500Y-88565000D01*
X157717500Y-90740000D02*
X157717500Y-92740000D01*
X155592500Y-91037500D02*
X157420000Y-91037500D01*
X157717500Y-95240000D02*
X157717500Y-96740000D01*
X144508500Y-85241500D02*
X146741500Y-85241500D01*
X154492500Y-99990000D02*
X154492500Y-103675603D01*
X157717500Y-92740000D02*
X157717500Y-95240000D01*
X150186480Y-87312500D02*
X151498980Y-86000000D01*
X152815000Y-116862500D02*
X153192500Y-117240000D01*
X133942500Y-118240000D02*
X131967500Y-118240000D01*
X156957500Y-109990000D02*
X146217500Y-109990000D01*
X154492500Y-99990000D02*
X154642500Y-99990000D01*
X156515000Y-94037500D02*
X157717500Y-95240000D01*
X154016500Y-97199636D02*
X154427136Y-96789000D01*
X121325000Y-117347500D02*
X120717500Y-116740000D01*
X132717500Y-118240000D02*
X133942500Y-118240000D01*
X146326000Y-129206500D02*
X147467500Y-128065000D01*
X129491500Y-85241500D02*
X131562500Y-87312500D01*
X157515000Y-92537500D02*
X157717500Y-92740000D01*
X123990000Y-125740000D02*
X130317500Y-125740000D01*
X129538750Y-125740000D02*
X128750000Y-126528750D01*
X140858980Y-87312500D02*
X142629980Y-85541500D01*
X132217500Y-117740000D02*
X132717500Y-118240000D01*
X149000000Y-87500000D02*
X150000000Y-87500000D01*
X142629980Y-85541500D02*
X144208500Y-85541500D01*
X153248980Y-98250000D02*
X154016500Y-97482480D01*
X126035000Y-87312500D02*
X123765000Y-89582500D01*
D46*
X151510000Y-117240000D02*
X151000000Y-117750000D01*
D44*
X133767500Y-115990000D02*
X136267500Y-113490000D01*
X136267500Y-113490000D02*
X139217500Y-113490000D01*
X155592500Y-94037500D02*
X156515000Y-94037500D01*
X131967500Y-116490000D02*
X132217500Y-116740000D01*
X150000000Y-87500000D02*
X150186480Y-87313520D01*
X128190000Y-87312500D02*
X127558000Y-87312500D01*
X127089000Y-85241500D02*
X129491500Y-85241500D01*
X157717500Y-88565000D02*
X157717500Y-90740000D01*
X154642500Y-99990000D02*
X156717500Y-97915000D01*
X139217500Y-110240000D02*
X139217500Y-108565000D01*
X131562500Y-87312500D02*
X140858980Y-87312500D01*
X127558000Y-87312500D02*
X127089000Y-86843500D01*
X133267500Y-116490000D02*
X131967500Y-116490000D01*
X157765000Y-110797500D02*
X156957500Y-109990000D01*
X155591500Y-96789000D02*
X156717500Y-97915000D01*
X130792500Y-119415000D02*
X130217500Y-119415000D01*
X154427136Y-96789000D02*
X155591500Y-96789000D01*
X131967500Y-118240000D02*
X130792500Y-119415000D01*
X114467500Y-87540000D02*
X116677500Y-89750000D01*
X159362500Y-86000000D02*
X159822500Y-86460000D01*
X151498980Y-86000000D02*
X159362500Y-86000000D01*
X159822500Y-89000000D02*
X159822500Y-86460000D01*
X156717500Y-97740000D02*
X156717500Y-97915000D01*
X144208500Y-85541500D02*
X144508500Y-85241500D01*
X146741500Y-85241500D02*
X149000000Y-87500000D01*
X157420000Y-91037500D02*
X157717500Y-90740000D01*
X128190000Y-87312500D02*
X126035000Y-87312500D01*
X154141000Y-120228500D02*
X154290000Y-120377500D01*
X127089000Y-86843500D02*
X127089000Y-85241500D01*
X133767500Y-115990000D02*
X133267500Y-116490000D01*
X130317500Y-125740000D02*
X129538750Y-125740000D01*
X151905000Y-94725000D02*
X151905000Y-97427500D01*
X114467500Y-87540000D02*
X114467500Y-90080000D01*
X128956500Y-129206500D02*
X146326000Y-129206500D01*
X130217500Y-114565000D02*
X130217500Y-116165000D01*
X157717500Y-96740000D02*
X156717500Y-97740000D01*
X150186480Y-87313520D02*
X150186480Y-87312500D01*
X123597500Y-89750000D02*
X123765000Y-89582500D01*
X120500000Y-122250000D02*
X123990000Y-125740000D01*
X136617500Y-125740000D02*
X130317500Y-125740000D01*
X128150000Y-117347500D02*
X130217500Y-119415000D01*
X123045000Y-117347500D02*
X128150000Y-117347500D01*
X151905000Y-94725000D02*
X152405000Y-94725000D01*
X147467500Y-128065000D02*
X149717500Y-128065000D01*
X157765000Y-106948103D02*
X157765000Y-110797500D01*
X155592500Y-92537500D02*
X157515000Y-92537500D01*
X116677500Y-89750000D02*
X123597500Y-89750000D01*
X128750000Y-126528750D02*
X128750000Y-129000000D01*
X154492500Y-103675603D02*
X157765000Y-106948103D01*
X152727500Y-98250000D02*
X153248980Y-98250000D01*
X132217500Y-116740000D02*
X132217500Y-117740000D01*
X154016500Y-97482480D02*
X154016500Y-97199636D01*
D46*
X153192500Y-117240000D02*
X151510000Y-117240000D01*
D44*
X152815000Y-114607500D02*
X152815000Y-116862500D01*
X131642500Y-116165000D02*
X131967500Y-116490000D01*
X123045000Y-117347500D02*
X121325000Y-117347500D01*
X151905000Y-97427500D02*
X152727500Y-98250000D01*
X128750000Y-129000000D02*
X128956500Y-129206500D01*
X130217500Y-116165000D02*
X131642500Y-116165000D01*
%TO.N,Net-(D1-K)*%
X149717500Y-115460001D02*
X149717500Y-122952500D01*
X152815000Y-113337500D02*
X151840001Y-113337500D01*
X151840001Y-113337500D02*
X149717500Y-115460001D01*
%TO.N,Net-(D1-A)*%
X149717500Y-126415000D02*
X149717500Y-124527500D01*
%TO.N,Net-(D2-A)*%
X147467500Y-124490000D02*
X147467500Y-126415000D01*
%TO.N,Net-(D2-K)*%
X152815000Y-112067500D02*
X152815000Y-112686500D01*
X149216500Y-119491000D02*
X147467500Y-121240000D01*
X151489000Y-112979981D02*
X149216500Y-115252481D01*
X151778322Y-112686500D02*
X151489000Y-112975822D01*
X151489000Y-112975822D02*
X151489000Y-112979981D01*
X149216500Y-115252481D02*
X149216500Y-119491000D01*
X152815000Y-112686500D02*
X151778322Y-112686500D01*
X147467500Y-121240000D02*
X147467500Y-122915000D01*
%TO.N,Net-(D3-A)*%
X147755000Y-100027500D02*
X147717500Y-100065000D01*
X149717500Y-100027500D02*
X147755000Y-100027500D01*
%TO.N,Net-(D4-A)*%
X132392500Y-108627500D02*
X134005000Y-110240000D01*
X132392500Y-107240000D02*
X132392500Y-108627500D01*
%TO.N,GPIO18*%
X120575000Y-118447500D02*
X119750000Y-117622500D01*
X126207500Y-109000000D02*
X129500000Y-105707500D01*
X135501000Y-101249000D02*
X140547500Y-96202500D01*
X124000000Y-109000000D02*
X126207500Y-109000000D01*
X119750000Y-113250000D02*
X124000000Y-109000000D01*
X123045000Y-118447500D02*
X120575000Y-118447500D01*
X150015000Y-92537500D02*
X149467500Y-91990000D01*
X150717500Y-92537500D02*
X150015000Y-92537500D01*
X147255000Y-96202500D02*
X148967500Y-94490000D01*
X129500000Y-105707500D02*
X129500000Y-102998980D01*
X145690000Y-96202500D02*
X147255000Y-96202500D01*
X119750000Y-117622500D02*
X119750000Y-113250000D01*
X131249980Y-101249000D02*
X135501000Y-101249000D01*
X140547500Y-96202500D02*
X145690000Y-96202500D01*
X129500000Y-102998980D02*
X131249980Y-101249000D01*
%TO.N,GPIO23*%
X121747500Y-116247500D02*
X120717500Y-115217500D01*
X131457500Y-101750000D02*
X136500000Y-101750000D01*
X148309948Y-93037500D02*
X148109949Y-92837501D01*
X122467500Y-111990000D02*
X127010000Y-111990000D01*
X123045000Y-116247500D02*
X121747500Y-116247500D01*
X140967500Y-97282500D02*
X140967500Y-97240000D01*
X140967500Y-90985000D02*
X140967500Y-94740000D01*
X127010000Y-111990000D02*
X130175287Y-108824713D01*
X145690000Y-87312500D02*
X144640000Y-87312500D01*
X120717500Y-113740000D02*
X122467500Y-111990000D01*
X144640000Y-87312500D02*
X140967500Y-90985000D01*
X130175287Y-103032213D02*
X131457500Y-101750000D01*
X128650000Y-116247500D02*
X130217500Y-117815000D01*
X150717500Y-93037500D02*
X148309948Y-93037500D01*
X147967500Y-87490000D02*
X147790000Y-87312500D01*
X130175287Y-108824713D02*
X130175287Y-103032213D01*
X136500000Y-101750000D02*
X140967500Y-97282500D01*
X147790000Y-87312500D02*
X145690000Y-87312500D01*
X123045000Y-116247500D02*
X128650000Y-116247500D01*
X147967500Y-88240000D02*
X147967500Y-87490000D01*
X120717500Y-115217500D02*
X120717500Y-113740000D01*
%TO.N,GPIO5*%
X133291810Y-112240000D02*
X132616810Y-112915000D01*
X127607726Y-112915000D02*
X130217500Y-112915000D01*
X125375226Y-115147500D02*
X127607726Y-112915000D01*
X143967500Y-102740000D02*
X143967500Y-104240000D01*
X143461000Y-104746500D02*
X143461000Y-105246500D01*
X141717500Y-111990000D02*
X141467500Y-112240000D01*
X143217500Y-105490000D02*
X142731020Y-105490000D01*
X140717500Y-99490000D02*
X143967500Y-102740000D01*
X141717500Y-106503520D02*
X141717500Y-111990000D01*
X141985000Y-97472500D02*
X140717500Y-98740000D01*
X123045000Y-115147500D02*
X125375226Y-115147500D01*
X143967500Y-104240000D02*
X143461000Y-104746500D01*
X140717500Y-98740000D02*
X140717500Y-99490000D01*
X141467500Y-112240000D02*
X133291810Y-112240000D01*
X132616810Y-112915000D02*
X130217500Y-112915000D01*
X142731020Y-105490000D02*
X141717500Y-106503520D01*
X143461000Y-105246500D02*
X143217500Y-105490000D01*
X145690000Y-97472500D02*
X141985000Y-97472500D01*
%TO.N,GPIO19*%
X135207500Y-121500000D02*
X144468500Y-112239000D01*
X124902500Y-121500000D02*
X129782500Y-121500000D01*
X130217500Y-121065000D02*
X130652500Y-121500000D01*
X124050000Y-120647500D02*
X124902500Y-121500000D01*
X130652500Y-121500000D02*
X135207500Y-121500000D01*
X129782500Y-121500000D02*
X130217500Y-121065000D01*
X147717000Y-93537500D02*
X146322000Y-94932500D01*
X144468500Y-99991000D02*
X143467500Y-98990000D01*
X144468500Y-112239000D02*
X144468500Y-99991000D01*
X123045000Y-120647500D02*
X124050000Y-120647500D01*
X150717500Y-93537500D02*
X147717000Y-93537500D01*
X146322000Y-94932500D02*
X145690000Y-94932500D01*
X145690000Y-94932500D02*
X142775000Y-94932500D01*
%TO.N,GPIO25*%
X137217500Y-97472500D02*
X128190000Y-97472500D01*
%TO.N,GPIO22*%
X151217500Y-86990000D02*
X149217500Y-88990000D01*
X152967500Y-86990000D02*
X151217500Y-86990000D01*
X158217500Y-99240000D02*
X158217500Y-100095000D01*
X158217500Y-100095000D02*
X159822500Y-101700000D01*
X146097500Y-88990000D02*
X145690000Y-88582500D01*
X149217500Y-88990000D02*
X146097500Y-88990000D01*
%TO.N,GPIO26*%
X136467500Y-98240000D02*
X129291000Y-98240000D01*
X136967500Y-98740000D02*
X136467500Y-98240000D01*
X129291000Y-98273500D02*
X128659000Y-98273500D01*
X128659000Y-98273500D02*
X128190000Y-98742500D01*
X129291000Y-98240000D02*
X129291000Y-98273500D01*
D45*
%TO.N,Net-(P1-CC)*%
X158392500Y-117000000D02*
X158000000Y-117000000D01*
X158000000Y-117000000D02*
X156750000Y-118250000D01*
D44*
%TO.N,Net-(U1-TEMP)*%
X159990000Y-113415000D02*
X158797500Y-114607500D01*
X158797500Y-114607500D02*
X157765000Y-114607500D01*
%TO.N,Net-(U1-PROG)*%
X158695000Y-113337500D02*
X157765000Y-113337500D01*
X159967500Y-112065000D02*
X158695000Y-113337500D01*
%TO.N,Net-(U3-EN)*%
X126415000Y-88582500D02*
X128190000Y-88582500D01*
X125415000Y-89582500D02*
X126415000Y-88582500D01*
%TO.N,Net-(R7-Pad1)*%
X156217500Y-100240000D02*
X156217500Y-103490000D01*
X156717500Y-99565000D02*
X156717500Y-99740000D01*
X156717500Y-99740000D02*
X156217500Y-100240000D01*
%TO.N,Net-(U3-IO16)*%
X147717500Y-98415000D02*
X147967500Y-98415000D01*
X145690000Y-100012500D02*
X146120000Y-100012500D01*
X146120000Y-100012500D02*
X147717500Y-98415000D01*
%TO.N,Net-(U3-IO13)*%
X132500000Y-105697500D02*
X132500000Y-103802500D01*
X134042500Y-107240000D02*
X132500000Y-105697500D01*
%TO.N,Net-(U3-IO2)*%
X140926021Y-105490000D02*
X142022500Y-105490000D01*
X142660000Y-104852500D02*
X142660000Y-103802500D01*
X139217500Y-106740000D02*
X139966500Y-105991000D01*
X139217500Y-106915000D02*
X139217500Y-106740000D01*
X140425021Y-105991000D02*
X140926021Y-105490000D01*
X142022500Y-105490000D02*
X142660000Y-104852500D01*
X139966500Y-105991000D02*
X140425021Y-105991000D01*
%TO.N,Net-(U3-IO15)*%
X137892500Y-105490000D02*
X136467500Y-106915000D01*
X141390000Y-104317500D02*
X140217500Y-105490000D01*
X141390000Y-103802500D02*
X141390000Y-104317500D01*
X140217500Y-105490000D02*
X137892500Y-105490000D01*
%TO.N,Net-(U3-IO34)*%
X125100000Y-92392500D02*
X124840000Y-92132500D01*
X128190000Y-92392500D02*
X125100000Y-92392500D01*
%TO.N,Net-(U3-IO35)*%
X128190000Y-93662500D02*
X127140000Y-93662500D01*
X126750000Y-94052500D02*
X126750000Y-98822500D01*
X126750000Y-98822500D02*
X124640000Y-100932500D01*
X127140000Y-93662500D02*
X126750000Y-94052500D01*
%TO.N,Net-(U3-IO0)*%
X145690000Y-102552500D02*
X145690000Y-107212500D01*
X146217500Y-107740000D02*
X149467500Y-107740000D01*
X145690000Y-107212500D02*
X146217500Y-107740000D01*
%TO.N,GPIO27*%
X127470603Y-100012500D02*
X124703103Y-102780000D01*
X124703103Y-102780000D02*
X114467500Y-102780000D01*
X128190000Y-100012500D02*
X127470603Y-100012500D01*
%TO.N,GPIO14*%
X113475514Y-103981000D02*
X113000000Y-103505486D01*
X128190000Y-101282500D02*
X127139999Y-101282500D01*
X113000000Y-100250000D02*
X113250000Y-100000000D01*
X113250000Y-100000000D02*
X114227500Y-100000000D01*
X114227500Y-100000000D02*
X114467500Y-100240000D01*
X113000000Y-103505486D02*
X113000000Y-100250000D01*
X127139999Y-101282500D02*
X124441499Y-103981000D01*
X124441499Y-103981000D02*
X113475514Y-103981000D01*
%TO.N,GPIO12*%
X118083606Y-108240000D02*
X115163606Y-105320000D01*
X121748980Y-107750000D02*
X121258980Y-108240000D01*
X128190000Y-102552500D02*
X128190000Y-105060000D01*
X121258980Y-108240000D02*
X118083606Y-108240000D01*
X115163606Y-105320000D02*
X114467500Y-105320000D01*
X128190000Y-105060000D02*
X125500000Y-107750000D01*
X125500000Y-107750000D02*
X121748980Y-107750000D01*
%TO.N,GPIO21*%
X151405000Y-89850000D02*
X150107500Y-89850000D01*
X147565000Y-92392500D02*
X145690000Y-92392500D01*
X150107500Y-89850000D02*
X147565000Y-92392500D01*
%TO.N,GPIO4*%
X151467500Y-100990000D02*
X151217500Y-101240000D01*
X153905000Y-96552500D02*
X153905000Y-94725000D01*
X152967500Y-97490000D02*
X153905000Y-96552500D01*
X145732500Y-101240000D02*
X145690000Y-101282500D01*
X151467500Y-99240000D02*
X151467500Y-100990000D01*
X151217500Y-101240000D02*
X145732500Y-101240000D01*
%TD*%
M02*
